<svg width="24" height="23" viewBox="0 0 24 23" fill="none" xmlns="http://www.w3.org/2000/svg">
<path d="M7.49505 11.1429C6.85666 10.2221 6.50063 9.11721 6.50063 8.00003C6.50063 7.72994 6.52519 7.45985 6.56202 7.18976C6.03412 7.37391 5.49394 7.47213 4.9292 7.47213C3.27184 7.47213 1.99505 6.4286 1.73724 6.4286C0.178088 6.4286 0.214919 9.76788 0.214919 10.7623C0.214919 12.125 1.36894 12.7143 2.59662 12.7143H4.2417C5.06425 11.7322 6.21827 11.1797 7.49505 11.1429ZM20.6435 18.9632C20.6435 16.1886 19.9928 11.9286 16.3957 11.9286C15.9783 11.9286 14.456 13.6351 12.0006 13.6351C9.54528 13.6351 8.02296 11.9286 7.60554 11.9286C4.00845 11.9286 3.35778 16.1886 3.35778 18.9632C3.35778 20.952 4.67139 22.1429 6.63568 22.1429H17.3656C19.3299 22.1429 20.6435 20.952 20.6435 18.9632ZM8.07206 3.28574C8.07206 1.55471 6.66023 0.142883 4.9292 0.142883C3.19818 0.142883 1.78635 1.55471 1.78635 3.28574C1.78635 5.01677 3.19818 6.4286 4.9292 6.4286C6.66023 6.4286 8.07206 5.01677 8.07206 3.28574ZM16.7149 8.00003C16.7149 5.39735 14.6033 3.28574 12.0006 3.28574C9.39795 3.28574 7.28635 5.39735 7.28635 8.00003C7.28635 10.6027 9.39795 12.7143 12.0006 12.7143C14.6033 12.7143 16.7149 10.6027 16.7149 8.00003ZM23.7863 10.7623C23.7863 9.76788 23.8232 6.4286 22.264 6.4286C22.0062 6.4286 20.7294 7.47213 19.0721 7.47213C18.5073 7.47213 17.9672 7.37391 17.4392 7.18976C17.4761 7.45985 17.5006 7.72994 17.5006 8.00003C17.5006 9.11721 17.1446 10.2221 16.5062 11.1429C17.783 11.1797 18.937 11.7322 19.7596 12.7143H21.4047C22.6323 12.7143 23.7863 12.125 23.7863 10.7623ZM22.2149 3.28574C22.2149 1.55471 20.8031 0.142883 19.0721 0.142883C17.341 0.142883 15.9292 1.55471 15.9292 3.28574C15.9292 5.01677 17.341 6.4286 19.0721 6.4286C20.8031 6.4286 22.2149 5.01677 22.2149 3.28574Z" fill="#808D93"/>
</svg>
