<svg width="21" height="16" viewBox="0 0 21 16" fill="none" xmlns="http://www.w3.org/2000/svg">
<path d="M17.5698 9.32143C17.5698 9.29688 17.5698 9.27233 17.5575 9.24777L10.4984 3.42858L3.43922 9.24777C3.43922 9.27233 3.42694 9.29688 3.42694 9.32143V15.2143C3.42694 15.644 3.78297 16 4.21266 16H8.92694V11.2857H12.0698V16H16.7841C17.2138 16 17.5698 15.644 17.5698 15.2143V9.32143ZM20.3075 8.47434C20.4426 8.31474 20.418 8.05692 20.2584 7.92188L17.5698 5.6875V0.678576C17.5698 0.457594 17.3979 0.285719 17.1769 0.285719H14.8198C14.5988 0.285719 14.4269 0.457594 14.4269 0.678576V3.07255L11.4314 0.568085C10.9158 0.138397 10.081 0.138397 9.56534 0.568085L0.738328 7.92188C0.578729 8.05692 0.554176 8.31474 0.68922 8.47434L1.45038 9.38282C1.51177 9.45648 1.60998 9.50559 1.70819 9.51786C1.81868 9.53014 1.9169 9.49331 2.00284 9.43192L10.4984 2.34822L18.9939 9.43192C19.0676 9.49331 19.1535 9.51786 19.2517 9.51786C19.264 9.51786 19.2763 9.51786 19.2886 9.51786C19.3868 9.50559 19.485 9.45648 19.5464 9.38282L20.3075 8.47434Z" fill="#808D93"/>
</svg>
