<svg width="16" height="20" viewBox="0 0 16 20" fill="none" xmlns="http://www.w3.org/2000/svg">
<path d="M15.8627 16.3181C15.8627 13.0893 15.0647 9.35715 11.8482 9.35715C10.8538 10.327 9.50335 10.9286 8.00558 10.9286C6.50781 10.9286 5.15737 10.327 4.16295 9.35715C0.946429 9.35715 0.148438 13.0893 0.148438 16.3181C0.148438 18.1105 1.32701 19.5714 2.76339 19.5714H13.2478C14.6842 19.5714 15.8627 18.1105 15.8627 16.3181ZM12.7199 5.42858C12.7199 2.8259 10.6083 0.714294 8.00558 0.714294C5.4029 0.714294 3.29129 2.8259 3.29129 5.42858C3.29129 8.03126 5.4029 10.1429 8.00558 10.1429C10.6083 10.1429 12.7199 8.03126 12.7199 5.42858Z" fill="#808D93"/>
</svg>
