<svg width="21" height="20" viewBox="0 0 21 20" fill="none" xmlns="http://www.w3.org/2000/svg">
<path d="M5.90792 9.98327C3.4894 9.47992 1.85658 7.81028 1.85658 6.60715V5.42858H4.99944C4.99944 7.35604 5.3923 8.8538 5.90792 9.98327ZM19.1423 6.60715C19.1423 7.81028 17.5095 9.47992 15.091 9.98327C15.6066 8.8538 15.9994 7.35604 15.9994 5.42858H19.1423V6.60715ZM20.7137 5.03572C20.7137 4.38505 20.1858 3.85715 19.5352 3.85715H15.9994V2.67858C15.9994 1.59822 15.1155 0.714294 14.0352 0.714294H6.96373C5.88337 0.714294 4.99944 1.59822 4.99944 2.67858V3.85715H1.46373C0.813058 3.85715 0.285156 4.38505 0.285156 5.03572V6.60715C0.285156 8.93974 3.10882 11.5179 6.93917 11.702C7.43025 12.3281 7.88449 12.6964 8.10547 12.8683C8.75614 13.4576 8.92801 14.0714 8.92801 14.8572C8.92801 15.6429 8.53516 16.4286 7.35659 16.4286C6.17801 16.4286 4.99944 17.2143 4.99944 18.3929V19.1786C4.99944 19.3996 5.17132 19.5714 5.3923 19.5714H15.6066C15.8276 19.5714 15.9994 19.3996 15.9994 19.1786V18.3929C15.9994 17.2143 14.8209 16.4286 13.6423 16.4286C12.4637 16.4286 12.0709 15.6429 12.0709 14.8572C12.0709 14.0714 12.2427 13.4576 12.8934 12.8683C13.1144 12.6964 13.5686 12.3281 14.0597 11.702C17.8901 11.5179 20.7137 8.93974 20.7137 6.60715V5.03572Z" fill="#808D93"/>
</svg>
