<svg width="19" height="22" viewBox="0 0 19 22" fill="none" xmlns="http://www.w3.org/2000/svg">
<path d="M18.9255 1.89287C18.9255 1.2422 18.3976 0.714294 17.7469 0.714294C17.6242 0.714294 17.5137 0.726571 17.4032 0.763401L7.1889 3.90626C6.69782 4.06586 6.35407 4.5201 6.35407 5.03572V16.9074C5.61747 16.5759 4.8072 16.4286 3.99693 16.4286C2.65876 16.4286 0.0683594 17.0547 0.0683594 18.7857C0.0683594 20.5168 2.65876 21.1429 3.99693 21.1429C5.3351 21.1429 7.9255 20.5168 7.9255 18.7857V10.0815L17.3541 7.17188V13.7645C16.6175 13.433 15.8072 13.2857 14.9969 13.2857C13.6588 13.2857 11.0684 13.9118 11.0684 15.6429C11.0684 17.3739 13.6588 18 14.9969 18C16.3351 18 18.9255 17.3739 18.9255 15.6429V1.89287Z" fill="#808D93"/>
</svg>
