<svg width="48" height="48" viewBox="0 0 48 48" fill="none" xmlns="http://www.w3.org/2000/svg">
<circle cx="24" cy="24" r="24" fill="#F3F1FF"/>
<path d="M24.0555 24.7778C20.8338 24.7778 18.2221 27.5636 18.2221 31H29.8888C29.8888 27.5636 27.2771 24.7778 24.0555 24.7778Z" fill="#886CFF"/>
<path d="M31.4445 26.3333C28.8672 26.3333 26.7779 28.4227 26.7779 31H36.1112C36.1112 28.4227 34.0219 26.3333 31.4445 26.3333Z" fill="#886CFF"/>
<path d="M16.6667 26.3333C14.0893 26.3333 12 28.4227 12 31H21.3333C21.3333 28.4227 19.244 26.3333 16.6667 26.3333Z" fill="#886CFF"/>
<path d="M27.1667 19.9167C27.1667 21.5275 25.8608 22.8333 24.25 22.8333C22.6392 22.8333 21.3333 21.5275 21.3333 19.9167C21.3333 18.3058 22.6392 17 24.25 17C25.8608 17 27.1667 18.3058 27.1667 19.9167Z" fill="#886CFF"/>
<path d="M19.3889 21.8611C19.3889 23.2572 18.2572 24.3889 16.8611 24.3889C15.4651 24.3889 14.3333 23.2572 14.3333 21.8611C14.3333 20.4651 15.4651 19.3333 16.8611 19.3333C18.2572 19.3333 19.3889 20.4651 19.3889 21.8611Z" fill="#886CFF"/>
<path d="M34.1668 21.8611C34.1668 23.2572 33.035 24.3889 31.639 24.3889C30.2429 24.3889 29.1112 23.2572 29.1112 21.8611C29.1112 20.4651 30.2429 19.3333 31.639 19.3333C33.035 19.3333 34.1668 20.4651 34.1668 21.8611Z" fill="#886CFF"/>
</svg>
