<svg width="48" height="48" viewBox="0 0 48 48" fill="none" xmlns="http://www.w3.org/2000/svg">
<circle cx="24" cy="24" r="24" fill="#FFF8E5"/>
<path d="M22.768 29.0975V15.3563L31.0003 13V17.0512L24.4599 18.7874V31.2717C24.4599 33.2753 21.6709 34 20.2301 34C18.7893 34 16.0003 33.2753 16.0003 31.2717C16.0003 29.268 18.7893 28.5433 20.2301 28.5433C21.1025 28.5433 21.9749 28.7138 22.768 29.0975Z" fill="#FEBD09"/>
<path d="M30.4631 24.6926L32.5198 18.1371L36.7999 18.2451L36.1935 20.1778L32.8135 20.0272L30.9449 25.9831C30.645 26.939 29.206 26.8673 28.5186 26.6516C27.8312 26.436 26.6091 25.6728 26.909 24.7169C27.2089 23.761 28.648 23.8327 29.3353 24.0484C29.7515 24.1789 30.1422 24.3909 30.4631 24.6926Z" fill="#FEBD09"/>
<path d="M16.8426 23.4547L14.5834 16.9661L18.0832 14.5L18.7492 16.4129L15.9464 18.3081L17.999 24.2031C18.3285 25.1492 17.1306 25.95 16.4503 26.1869C15.77 26.4237 14.3339 26.5401 14.0044 25.594C13.675 24.6479 14.8728 23.8471 15.5531 23.6102C15.9651 23.4668 16.4051 23.4039 16.8426 23.4547Z" fill="#FEBD09"/>
</svg>
